<?xml version="1.0" standalone="no"?>
<!DOCTYPE svg PUBLIC "-//W3C//DTD SVG 20010904//EN"
 "http://www.w3.org/TR/2001/REC-SVG-20010904/DTD/svg10.dtd">
<svg version="1.0" xmlns="http://www.w3.org/2000/svg"
 width="658.000000pt" height="658.000000pt" viewBox="0 0 658.000000 658.000000"
 preserveAspectRatio="xMidYMid meet">
<metadata>
Created by potrace 1.14, written by Peter Selinger 2001-2017
</metadata>
<g transform="translate(0.000000,658.000000) scale(0.100000,-0.100000)"
fill="#000000" stroke="none">
<path d="M3217 5785 c-40 -14 -63 -36 -72 -70 -4 -11 -5 -132 -3 -269 l3 -248
33 -29 c27 -24 41 -29 83 -29 43 0 55 5 80 29 l29 29 0 250 c0 152 -4 261 -11
280 -7 22 -24 37 -53 51 -49 24 -41 24 -89 6z"/>
<path d="M2094 5496 c-39 -17 -74 -61 -74 -95 0 -14 8 -39 18 -56 10 -16 30
-50 44 -75 14 -25 43 -76 65 -115 22 -38 55 -97 73 -130 47 -87 66 -105 111
-105 55 0 86 15 109 52 28 45 22 66 -58 210 -38 68 -89 159 -113 202 -60 108
-109 140 -175 112z"/>
<path d="M4340 5497 c-40 -14 -40 -14 -187 -290 -91 -171 -94 -179 -83 -212
16 -47 57 -75 112 -75 60 0 78 20 165 180 17 30 58 105 92 166 33 61 61 120
61 130 0 31 -43 83 -83 99 -20 8 -38 15 -40 14 -1 0 -18 -5 -37 -12z"/>
<path d="M1412 4894 c-31 -21 -44 -58 -32 -88 13 -36 366 -336 394 -336 33 0
73 35 81 70 9 42 -15 77 -104 152 -42 34 -115 98 -163 140 -95 84 -128 96
-176 62z"/>
<path d="M5004 4881 c-21 -16 -48 -37 -59 -47 -11 -11 -73 -66 -138 -123 -65
-57 -123 -114 -129 -127 -14 -29 5 -79 38 -101 34 -22 71 -9 129 43 28 25 100
87 161 139 119 101 144 130 144 169 0 29 -52 76 -84 76 -13 0 -41 -13 -62 -29z"/>
<path d="M3005 4810 c-184 -32 -295 -69 -447 -145 -352 -177 -607 -464 -732
-824 -67 -191 -80 -279 -80 -516 0 -231 14 -326 74 -507 90 -269 276 -517 540
-720 74 -57 101 -84 121 -124 l26 -51 6 -354 c7 -391 10 -418 70 -506 40 -57
117 -119 171 -135 21 -7 40 -19 43 -27 3 -9 18 -44 34 -78 51 -106 153 -176
301 -207 97 -20 159 -20 255 0 169 35 308 146 332 266 5 25 15 33 58 50 62 23
143 93 179 154 49 84 54 124 54 470 0 334 1 345 46 439 10 22 48 58 107 102
315 233 520 553 604 943 14 67 18 129 18 290 0 178 -3 219 -23 309 -45 199
-118 374 -224 533 -80 121 -271 312 -396 396 -174 119 -401 208 -621 246 -130
22 -383 20 -516 -4z m385 -150 c0 -5 7 -7 15 -4 9 4 51 1 94 -6 83 -13 83 -13
70 -70 -5 -20 -44 -28 -94 -19 -44 8 -263 -7 -310 -21 -16 -5 -46 -13 -65 -18
-39 -11 -223 -74 -228 -78 -2 -1 8 -20 23 -42 25 -37 25 -42 12 -74 -32 -75
-112 -109 -179 -74 -23 12 -26 12 -21 0 3 -9 -2 -14 -16 -14 -12 0 -21 -5 -21
-11 0 -5 -4 -7 -10 -4 -5 3 -10 0 -10 -7 -1 -7 -19 -31 -42 -53 -22 -22 -37
-34 -33 -26 5 9 4 12 -3 7 -7 -4 -12 -34 -12 -74 0 -51 -6 -77 -22 -109 -49
-89 -112 -139 -192 -149 -43 -6 -46 -9 -46 -36 0 -42 -17 -68 -44 -68 -13 0
-27 -7 -30 -16 -4 -10 -2 -13 7 -8 6 4 4 -2 -5 -13 -24 -27 -22 -43 5 -43 45
0 62 -46 30 -82 -38 -42 -90 -8 -80 55 3 23 -1 35 -16 48 -19 15 -20 19 -7 50
8 19 18 37 23 40 5 4 5 9 0 12 -18 11 -86 -184 -107 -308 -33 -191 -62 -335
-68 -335 -3 0 -10 25 -13 55 -4 30 -11 52 -16 49 -5 -3 -6 -16 -3 -29 3 -12 1
-26 -5 -29 -6 -4 -11 -2 -11 3 0 6 -7 11 -15 11 -10 0 -15 -11 -16 -37 l-1
-38 -9 40 c-13 65 -10 313 6 415 41 268 152 500 328 686 98 103 259 230 278
218 7 -4 9 -3 6 4 -8 12 157 99 259 135 65 23 226 61 299 70 68 9 295 7 295
-3z m225 -40 c-3 -5 -13 -10 -21 -10 -8 0 -12 5 -9 10 3 6 13 10 21 10 8 0 12
-4 9 -10z m-484 -313 c-10 -9 -11 -8 -5 6 3 10 9 15 12 12 3 -3 0 -11 -7 -18z
m466 -673 c-3 -3 -12 -4 -19 -1 -8 3 -5 6 6 6 11 1 17 -2 13 -5z m270 -556
c-3 -8 -6 -5 -6 6 -1 11 2 17 5 13 3 -3 4 -12 1 -19z m-337 2 c0 -5 -2 -10 -4
-10 -3 0 -8 5 -11 10 -3 6 -1 10 4 10 6 0 11 -4 11 -10z m-1583 -72 c-3 -8 -6
-5 -6 6 -1 11 2 17 5 13 3 -3 4 -12 1 -19z m1553 -21 c0 -2 -12 -14 -27 -28
l-28 -24 24 28 c23 25 31 32 31 24z m-700 -31 c0 -2 -8 -10 -17 -17 -16 -13
-17 -12 -4 4 13 16 21 21 21 13z m437 -42 c-3 -3 -12 -4 -19 -1 -8 3 -5 6 6 6
11 1 17 -2 13 -5z m100 0 c-3 -3 -12 -4 -19 -1 -8 3 -5 6 6 6 11 1 17 -2 13
-5z m40 0 c-3 -3 -12 -4 -19 -1 -8 3 -5 6 6 6 11 1 17 -2 13 -5z m-675 -1081
c-5 -101 -10 -109 -10 -15 1 45 4 82 7 82 4 0 5 -30 3 -67z m8 -362 c0 -39 -4
-73 -10 -76 -6 -4 -10 22 -10 69 0 44 4 76 10 76 6 0 10 -30 10 -69z m733
-418 c-7 -2 -19 -2 -25 0 -7 3 -2 5 12 5 14 0 19 -2 13 -5z"/>
<path d="M2680 4285 c-11 -13 -10 -14 4 -9 9 3 16 10 16 15 0 13 -6 11 -20 -6z"/>
<path d="M2635 4260 c-3 -5 1 -10 9 -10 9 0 16 5 16 10 0 6 -4 10 -9 10 -6 0
-13 -4 -16 -10z"/>
<path d="M2196 3787 c3 -10 9 -15 12 -12 3 3 0 11 -7 18 -10 9 -11 8 -5 -6z"/>
<path d="M1040 4224 c-27 -23 -31 -32 -28 -68 3 -35 9 -44 43 -67 50 -33 369
-169 396 -169 32 0 79 53 79 89 0 52 -34 75 -242 160 -108 45 -201 81 -206 81
-6 0 -25 -12 -42 -26z"/>
<path d="M5249 4176 c-206 -86 -235 -100 -243 -121 -22 -57 17 -128 70 -128
16 0 110 34 209 77 177 76 240 117 231 148 -3 7 -7 25 -10 40 -6 27 -30 46
-65 53 -10 2 -96 -29 -192 -69z"/>
<path d="M898 3460 c-81 -63 -47 -186 55 -205 18 -4 128 -5 245 -3 l212 3 29
30 c47 47 47 122 0 166 l-31 29 -243 0 c-226 0 -244 -1 -267 -20z"/>
<path d="M5114 3470 c-33 -13 -64 -59 -64 -96 0 -47 18 -81 56 -105 32 -19 46
-20 265 -17 l231 3 29 33 c48 53 37 147 -20 177 -25 12 -70 15 -253 14 -123 0
-233 -4 -244 -9z"/>
<path d="M1300 2764 c-259 -102 -274 -110 -288 -138 -25 -50 17 -126 70 -126
16 0 111 34 211 75 237 98 276 137 208 206 -40 39 -64 37 -201 -17z"/>
<path d="M5037 2799 c-26 -15 -48 -65 -41 -94 9 -38 46 -59 250 -140 190 -77
209 -80 246 -47 23 20 33 77 19 108 -12 27 -15 29 -241 119 -165 65 -200 73
-233 54z"/>
<path d="M1725 2264 c-16 -8 -48 -32 -70 -53 -22 -21 -91 -80 -153 -131 -63
-51 -117 -102 -121 -114 -18 -46 35 -126 83 -126 38 0 357 279 377 328 13 35
-15 88 -53 101 -37 13 -27 14 -63 -5z"/>
<path d="M4727 2264 c-33 -18 -50 -55 -41 -91 7 -25 260 -259 336 -310 34 -23
41 -24 68 -13 35 15 60 55 60 99 0 24 -11 39 -56 78 -31 26 -94 80 -139 119
-154 133 -178 146 -228 118z"/>
<path d="M2156 1849 c-10 -6 -41 -59 -68 -118 -27 -58 -66 -139 -85 -179 -20
-41 -36 -88 -36 -105 0 -67 104 -105 150 -54 37 39 177 334 177 373 0 63 -86
115 -138 83z"/>
<path d="M4278 1845 c-15 -8 -31 -30 -38 -49 -9 -30 -8 -42 12 -88 45 -107
140 -294 161 -315 24 -27 65 -30 113 -7 58 28 55 45 -41 246 -48 101 -94 191
-103 200 -24 25 -72 31 -104 13z"/>
</g>
</svg>
